<?xml version="1.0" standalone="no"?><svg xmlns="http://www.w3.org/2000/svg" viewBox="0 0 1440 320"><path fill="#0099ff" fill-opacity="1.5" d="M0,224L12,224C24,224,48,224,72,197.3C96,171,120,117,144,112C168,107,192,149,216,138.7C240,128,264,64,288,85.3C312,107,336,213,360,229.3C384,245,408,171,432,170.7C456,171,480,245,504,256C528,267,552,213,576,192C600,171,624,181,648,186.7C672,192,696,192,720,213.3C744,235,768,277,792,250.7C816,224,840,128,864,106.7C888,85,912,139,936,176C960,213,984,235,1008,202.7C1032,171,1056,85,1080,80C1104,75,1128,149,1152,181.3C1176,213,1200,203,1224,213.3C1248,224,1272,256,1296,224C1320,192,1344,96,1368,101.3C1392,107,1416,213,1428,266.7L1440,320L1440,0L1428,0C1416,0,1392,0,1368,0C1344,0,1320,0,1296,0C1272,0,1248,0,1224,0C1200,0,1176,0,1152,0C1128,0,1104,0,1080,0C1056,0,1032,0,1008,0C984,0,960,0,936,0C912,0,888,0,864,0C840,0,816,0,792,0C768,0,744,0,720,0C696,0,672,0,648,0C624,0,600,0,576,0C552,0,528,0,504,0C480,0,456,0,432,0C408,0,384,0,360,0C336,0,312,0,288,0C264,0,240,0,216,0C192,0,168,0,144,0C120,0,96,0,72,0C48,0,24,0,12,0L0,0Z"></path></svg>